<?xml version="1.0" encoding="utf-8"?>
<!-- Generator: Adobe Illustrator 24.0.1, SVG Export Plug-In . SVG Version: 6.00 Build 0)  -->
<svg version="1.1" id="Layer_1" xmlns="http://www.w3.org/2000/svg" x="0px" y="0px"
     viewBox="0 0 60 60" style="enable-background:new 0 0 60 60;" xml:space="preserve">
<style type="text/css">
	.st0{fill:#0044FF;}
	.st1{fill:none;}
	.st2{fill:#FFFFFF;}
</style>
<rect x="-0.7" y="-0.7" class="st0" width="61.5" height="61.5"/>
<path class="st1" d="M20,20h24v24H20V20z"/>
<path class="st1" d="M38.1,0.8h24v24h-24V0.8z"/>
<path class="st1" d="M20.5,19.4h24v24h-24V19.4z"/>
<path class="st2" d="M32.4,32.4v-8.7c0-3.5-2.8-6.3-6.3-6.3s-6.3,2.8-6.3,6.3v8.7c0,5.7,4.6,10.3,10.3,10.3s10.3-4.6,10.3-10.3v-15
	h3.2v15c0,7.4-6,13.4-13.4,13.4s-13.4-6-13.4-13.4v-8.7c0-5.2,4.2-9.5,9.5-9.5s9.5,4.2,9.5,9.5v8.7c0,3.1-2.5,5.5-5.5,5.5
	s-5.5-2.5-5.5-5.5l0,0v-8.7h3.2v8.7c0,1.3,1.1,2.4,2.4,2.4S32.4,33.7,32.4,32.4z"/>
</svg>
