<?xml version="1.0" encoding="utf-8"?>
<!-- Generator: Adobe Illustrator 22.0.1, SVG Export Plug-In . SVG Version: 6.00 Build 0)  -->
<svg version="1.1" id="Layer_1" xmlns="http://www.w3.org/2000/svg" xmlns:xlink="http://www.w3.org/1999/xlink" x="0px" y="0px"
	 viewBox="0 0 95.7 95.7" style="enable-background:new 0 0 95.7 95.7;" xml:space="preserve">
<title>logo</title>
<path d="M7.8,84.7l77-77c0.1-0.1,0.3-0.1,0.4,0l2.7,2.7c0.1,0.1,0.1,0.2,0,0.3l-77,77.1c-0.1,0.1-0.3,0.1-0.4,0l-2.7-2.7
	C7.7,85.1,7.7,84.8,7.8,84.7z"/>
<path d="M84.5,25.8l-6.3,6.1c-0.2,0.2-0.3,0.5-0.1,0.8c8.4,16.7,1.8,37.2-14.9,45.7S26,80.1,17.5,63.5s-1.8-37.2,14.9-45.7
	c13.7-6.9,30.4-3.9,40.7,7.6h0.1l6.8-6.8v-0.1c-16.1-17.7-43.7-19-61.4-2.9s-18.9,43.8-2.8,61.5S59.4,96,77.2,79.9
	C92.3,66.1,95.7,43.6,85.5,26C85.3,25.7,84.9,25.6,84.5,25.8L84.5,25.8z"/>
</svg>
