<?xml version="1.0" encoding="utf-8"?>
<!-- Generator: Adobe Illustrator 22.0.1, SVG Export Plug-In . SVG Version: 6.00 Build 0)  -->
<svg version="1.1" id="Layer_1" xmlns="http://www.w3.org/2000/svg" xmlns:xlink="http://www.w3.org/1999/xlink" x="0px" y="0px"
	 viewBox="0 0 21 80.2" style="enable-background:new 0 0 21 80.2;" xml:space="preserve">
<style type="text/css">
	.st0{fill:#E25950;}
	.st1{fill:#FCD669;}
	.st2{fill:#43458B;}
	.st3{fill:#F6F9FC;}
	.st4{opacity:0.2;fill:#8898AA;enable-background:new    ;}
	.st5{opacity:0.2;fill:#E25950;enable-background:new    ;}
	.st6{fill:#FFFFFF;}
	.st7{opacity:0.5;fill:#FFFFFF;enable-background:new    ;}
</style>
<title>flagIcons</title>
<path class="st0" d="M2,20h17c1.1,0,2,0.9,2,2v11c0,1.1-0.9,2-2,2H2c-1.1,0-2-0.9-2-2V22C0,20.9,0.9,20,2,20z"/>
<path class="st1" d="M12.5,23c0.3,0,0.5,0.2,0.5,0.5S12.8,24,12.5,24S12,23.8,12,23.5S12.2,23,12.5,23z"/>
<path class="st1" d="M13.5,25c0.3,0,0.5,0.2,0.5,0.5S13.8,26,13.5,26S13,25.8,13,25.5S13.2,25,13.5,25z"/>
<path class="st1" d="M13.5,27c0.3,0,0.5,0.2,0.5,0.5S13.8,28,13.5,28S13,27.8,13,27.5S13.2,27,13.5,27z"/>
<path class="st1" d="M12.5,29c0.3,0,0.5,0.2,0.5,0.5S12.8,30,12.5,30S12,29.8,12,29.5S12.2,29,12.5,29z"/>
<path class="st1" d="M6.5,28.6L4,30l0.6-2.8L3,25.2l2.5-0.1l1-2.1l1,2.1l2.5,0.1l-1.7,2.1L9,30L6.5,28.6z"/>
<path class="st2" d="M20.9,52.5h-2.4V54h-16v-1.5H0.1C0,52.3,0,52.2,0,52V41c0-0.2,0-0.3,0.1-0.5h2.4V39h16v1.5h2.4
	c0,0.2,0.1,0.3,0.1,0.5v11C21,52.2,21,52.3,20.9,52.5z"/>
<path class="st3" d="M17.7,39H19c1.1,0,2,0.9,2,2v0.5L17.6,44H21v5h-3.3l3.3,2.5V52c0,1.1-0.9,2-2,2h-1.3L13,50.4V54H8v-3.6L3.3,54
	H2c-1.1,0-2-0.9-2-2v-0.5L3.3,49H0v-5h3.4L0,41.5V41c0-1.1,0.9-2,2-2h1.3L8,42.5V39h5v3.5L17.7,39z"/>
<path class="st0" d="M12,48v6H9v-6H0v-3h9v-6h3v6h9v3H12z M12.5,44.5v-0.2l6.9-5.2c0.5,0.1,0.9,0.4,1.1,0.7l-6.3,4.7H12.5z
	 M0.2,40.1c0.2-0.4,0.5-0.7,0.9-0.9l7,5.3H6L0.2,40.1z M8.5,48.5v0.2L1.6,54c-0.5-0.1-0.9-0.4-1.1-0.7l6.3-4.7H8.5z M20.8,52.9
	c-0.2,0.4-0.5,0.7-0.9,0.9l-7-5.3H15L20.8,52.9z"/>
<path class="st3" d="M2.3,59h17c1.1,0,2,0.9,2,2v11c0,1.1-0.9,2-2,2h-17c-1.1,0-2-0.9-2-2V61C0.3,59.9,1.2,59,2.3,59z"/>
<path class="st4" d="M19,74H2c-1.1,0-2-0.9-2-2V61c0-1.1,0.9-2,2-2h17c1.1,0,2,0.9,2,2v11C21,73.1,20.1,74,19,74z M20,61
	c0-0.6-0.4-1-1-1H2c-0.6,0-1,0.4-1,1v11c0,0.6,0.4,1,1,1h17c0.6,0,1-0.4,1-1V61z"/>
<path class="st0" d="M10.8,63c1.9,0,3.5,1.6,3.5,3.5S12.7,70,10.8,70s-3.5-1.6-3.5-3.5S8.8,63,10.8,63z"/>
<path class="st0" d="M19,15H2c-1.1,0-2-0.9-2-2V6h8V0h11c1.1,0,2,0.9,2,2v11C21,14.1,20.1,15,19,15z"/>
<path class="st3" d="M0,11h21v1H0V11z M0,9h21v1H0V9z M0,7h21v1H0V7z M8,5h13v1H8V5z M8,3h13v1H8V3z M8,1h12.7C20.9,1.3,21,1.7,21,2
	H8V1z M20.7,14H0.3C0.1,13.7,0,13.4,0,13h21C21,13.4,20.9,13.7,20.7,14z"/>
<path class="st5" d="M19,15H2c-1.1,0-2-0.9-2-2V6h1v7c0,0.6,0.4,1,1,1h17c0.6,0,1-0.4,1-1V2c0-0.6-0.4-1-1-1H8V0h11c1.1,0,2,0.9,2,2
	v11C21,14.1,20.1,15,19,15z"/>
<path class="st2" d="M0,7V2c0-1.1,0.9-2,2-2h7v7H0z"/>
<path class="st6" d="M7.7,2.4C7.4,2.4,7,2.1,7,1.7C7,1.4,7.3,1,7.7,1c0.4,0,0.7,0.3,0.7,0.7v0C8.4,2.1,8.1,2.4,7.7,2.4z M7.4,3.7
	c0,0.4-0.3,0.7-0.7,0.7C6.4,4.4,6,4.1,6,3.7C6,3.3,6.4,3,6.7,3C7.1,3,7.4,3.3,7.4,3.7C7.4,3.7,7.4,3.7,7.4,3.7z M5.7,2.4
	C5.4,2.4,5,2.1,5,1.7C5,1.4,5.3,1,5.7,1c0.4,0,0.7,0.3,0.7,0.7v0C6.4,2.1,6.1,2.4,5.7,2.4z M5.4,3.7c0,0.4-0.3,0.7-0.7,0.7
	C4.4,4.4,4,4.1,4,3.7C4,3.3,4.4,3,4.7,3C5.1,3,5.4,3.3,5.4,3.7C5.4,3.7,5.4,3.7,5.4,3.7z M3.7,2.4C3.4,2.4,3,2.1,3,1.7
	C3,1.4,3.3,1,3.7,1c0.4,0,0.7,0.3,0.7,0.7v0C4.4,2.1,4.1,2.4,3.7,2.4z M3.4,3.7c0,0.4-0.3,0.7-0.7,0.7C2.4,4.4,2,4.1,2,3.7
	C2,3.3,2.4,3,2.7,3C3.1,3,3.4,3.3,3.4,3.7C3.4,3.7,3.4,3.7,3.4,3.7z M1.7,2.4C1.4,2.4,1,2.1,1,1.7C1,1.4,1.3,1,1.7,1
	c0.4,0,0.7,0.3,0.7,0.7v0C2.4,2.1,2.1,2.4,1.7,2.4z M1.7,5c0.4,0,0.7,0.3,0.7,0.7c0,0.4-0.3,0.7-0.7,0.7c-0.4,0-0.7-0.3-0.7-0.7
	c0,0,0,0,0,0C1.1,5.3,1.4,5,1.7,5z M3.7,5c0.4,0,0.7,0.3,0.7,0.7c0,0.4-0.3,0.7-0.7,0.7c-0.4,0-0.7-0.3-0.7-0.7c0,0,0,0,0,0
	C3.1,5.3,3.4,5,3.7,5z M5.7,5c0.4,0,0.7,0.3,0.7,0.7c0,0.4-0.3,0.7-0.7,0.7c-0.4,0-0.7-0.3-0.7-0.7c0,0,0,0,0,0C5.1,5.3,5.4,5,5.7,5
	z M7.7,5c0.4,0,0.7,0.3,0.7,0.7S8.2,6.4,7.8,6.4c-0.4,0-0.7-0.3-0.7-0.7c0,0,0,0,0,0C7.1,5.3,7.4,5,7.7,5z"/>
<path class="st7" d="M9,4.2c-0.3,0.3-0.7,0.3-1,0c-0.3-0.3-0.3-0.7,0-1C8.3,3,8.7,3,9,3.2V4.2z M0,3.3c0.3-0.3,0.7-0.3,1,0
	c0.3,0.3,0.3,0.7,0,1C0.9,4.3,0.7,4.4,0.5,4.4l0,0C0.3,4.4,0.1,4.3,0,4.2V3.3z"/>
</svg>
