<?xml version="1.0" encoding="utf-8"?>
<!-- Generator: Adobe Illustrator 22.0.1, SVG Export Plug-In . SVG Version: 6.00 Build 0)  -->
<svg version="1.1" id="Layer_1" xmlns="http://www.w3.org/2000/svg" xmlns:xlink="http://www.w3.org/1999/xlink" x="0px" y="0px"
	 viewBox="0 0 95.7 95.7" style="enable-background:new 0 0 95.7 95.7;" xml:space="preserve">
<style type="text/css">
	.st0{fill:#2DFF27;}
</style>
<g id="Layer_1_1_">
	<rect x="-1.9" y="-3.8" width="99.8" height="101.8"/>
	<title>logo</title>
	<path class="st0" d="M46.7,18.4c-14.3,0.7-25.6,12.2-26.2,26.1h-6.9c-0.1,0-0.2,0.1-0.2,0.2v2.4c0,0,0.1,0.2,0.2,0.2h6.9
		c0.8,15,13.7,26.8,28.7,26c14.2-0.7,25.4-12.1,26.1-26h7c0.1,0,0.2-0.1,0.2-0.2v-2.4c0-0.1,0-0.1-0.1-0.1h-56
		c0.5-8.5,6.1-16.3,14.7-19.2c11.3-3.7,23.3,2.5,27.1,13.7c0,0.2,0.2,0.3,0.4,0.3l5.5-0.1c0.3-0.1,0.4-0.3,0.3-0.5
		C71.1,26.3,59.6,17.8,46.7,18.4z M26.4,47.3h42.7c-0.6,8.6-6.4,16.1-14.7,18.9C43.1,69.8,31,63.6,27.3,52.4
		C26.8,50.7,26.5,49,26.4,47.3z"/>
</g>
<g id="Layer_2_1_">
	<rect x="0.5" y="15.1" width="95.8" height="1.2"/>
	<rect x="0.5" y="20.5" width="95.8" height="1.2"/>
	<rect x="0.5" y="25.8" width="95.8" height="1.2"/>
	<rect x="0.5" y="31.2" width="95.8" height="1.2"/>
	<rect x="0.5" y="52.6" width="95.8" height="1.2"/>
	<rect x="0.5" y="58" width="95.8" height="1.2"/>
	<rect x="0.5" y="63.3" width="95.8" height="1.2"/>
	<rect x="0.5" y="68.7" width="95.8" height="1.2"/>
	<rect x="0.5" y="74" width="95.8" height="1.2"/>
	<rect x="0.5" y="79.4" width="95.8" height="1.2"/>
	<rect x="0.5" y="36.5" width="95.8" height="1.2"/>
	<rect x="0.5" y="41.9" width="95.8" height="1.2"/>
	<rect x="0.5" y="47.3" width="95.8" height="1.2"/>
</g>
</svg>
