<?xml version="1.0" encoding="utf-8"?>
<!-- Generator: Adobe Illustrator 24.0.1, SVG Export Plug-In . SVG Version: 6.00 Build 0)  -->
<svg version="1.1" id="Layer_1" xmlns="http://www.w3.org/2000/svg" x="0px" y="0px"
     viewBox="0 0 100 100" style="enable-background:new 0 0 100 100;" xml:space="preserve">
<style type="text/css">
	.st0{fill:url(#SVGID_1_);}
	.st1{fill:none;}
	.st2{fill:#4C4C4C;}
</style>
<linearGradient id="SVGID_1_" gradientUnits="userSpaceOnUse" x1="-8.6257" y1="6.9538" x2="108.969" y2="93.2982" gradientTransform="matrix(6.123234e-17 -1 1 6.123234e-17 0 100)">
	<stop  offset="0" style="stop-color:#F4F4F4"/>
	<stop  offset="0.9757" style="stop-color:#EDEDED"/>
</linearGradient>
<polygon class="st0" points="0,0 100,0 100,100 0,100 "/>
<rect class="st1" width="100" height="100"/>
<g>
	<path class="st2" d="M43.2,33.7c1.7,1.8,1.7,4.4,0,6.2s-4.2,1.8-6,0c-1.7-1.8-1.7-4.4,0-6.2C39,32.1,41.5,32.1,43.2,33.7z"/>
</g>
<g>
	<path class="st2" d="M50,85.8c-19.7,0-35.8-16.1-35.8-35.8S30.3,14.2,50,14.2s35.8,16,35.8,35.8C85.8,69.7,69.8,85.8,50,85.8z
		 M50,18.9c-17.2,0-31.1,14-31.1,31.1s14,31.1,31.1,31.1c17.2,0,31.1-14,31.1-31.1S67.2,18.9,50,18.9z"/>
	<path class="st2" d="M50,84.6c-19.2,0-34.6-15.5-34.6-34.6S30.8,15.3,50,15.3S84.7,30.8,84.7,50S69.2,84.6,50,84.6z M50,17.7
		c-17.8,0-32.3,14.5-32.3,32.3S32.2,82.3,50,82.3S82.3,67.8,82.3,50S67.8,17.7,50,17.7z"/>
</g>
</svg>
