<?xml version="1.0" encoding="utf-8"?>
<!-- Generator: Adobe Illustrator 22.0.1, SVG Export Plug-In . SVG Version: 6.00 Build 0)  -->
<svg version="1.1" id="Layer_1" xmlns="http://www.w3.org/2000/svg" xmlns:xlink="http://www.w3.org/1999/xlink" x="0px" y="0px"
	 viewBox="0 0 95.7 95.7" style="enable-background:new 0 0 95.7 95.7;" xml:space="preserve">
<style type="text/css">
	.st0{fill:#FFFFFF;}
</style>
<title>logo</title>
<path class="st0" d="M6.5,85.9L86,6.4c0.1-0.1,0.3-0.1,0.4,0l2.8,2.8c0.1,0.1,0.1,0.2,0,0.3L9.7,89.1c-0.1,0.1-0.3,0.1-0.4,0
	l-2.8-2.8C6.4,86.3,6.4,86,6.5,85.9z"/>
<path class="st0" d="M85.7,25.1l-6.5,6.3c-0.2,0.2-0.3,0.5-0.1,0.8c8.7,17.3,1.9,38.4-15.4,47.2S25.3,81.2,16.5,64
	s-1.9-38.4,15.4-47.2c14.2-7.1,31.4-4,42,7.9H74l7-7v-0.1C64.4-0.7,35.9-2,17.6,14.6s-19.5,45.2-2.9,63.5S59.8,97.6,78.2,81
	c15.6-14.3,19.1-37.5,8.5-55.7C86.5,25,86.1,24.9,85.7,25.1L85.7,25.1z"/>
</svg>
