<?xml version="1.0" encoding="utf-8"?>
<!-- Generator: Adobe Illustrator 23.0.6, SVG Export Plug-In . SVG Version: 6.00 Build 0)  -->
<svg version="1.1" id="Layer_1" xmlns="http://www.w3.org/2000/svg" x="0px" y="0px"
     viewBox="0 0 95.7 95.7" style="enable-background:new 0 0 95.7 95.7;" xml:space="preserve">
<title>logo</title>
<path d="M86.7,25.3c-0.2-0.3-0.6-0.4-1-0.2l-6.5,6.3c-0.2,0.2-0.3,0.5-0.1,0.8c8.7,17.3,1.9,38.4-15.4,47.2
	c-13.3,6.7-28.7,4.2-39.2-5.1L89.2,9.5c0.1-0.1,0.1-0.2,0-0.3l-2.8-2.8c-0.1-0.1-0.3-0.1-0.4,0l-8.1,8.1C61-0.8,34.8-1,17.6,14.6
	c-18.2,16.5-19.5,45-3.1,63.3l-8,8c-0.1,0.1-0.1,0.4,0,0.4l2.8,2.8c0.1,0.1,0.3,0.1,0.4,0l8-8C34.6,96.5,60.9,96.6,78.2,81
	C93.8,66.7,97.3,43.5,86.7,25.3z M16.5,64c-8.8-17.2-1.9-38.4,15.4-47.2c12.9-6.4,28.2-4.5,38.9,4.8L21.3,71.1
	C19.5,69,17.8,66.6,16.5,64z"/>
</svg>
